<svg width="28" height="25" viewBox="0 0 28 25" fill="none" xmlns="http://www.w3.org/2000/svg">
<path d="M12.8555 24.2246H0.111328V14.4102C0.111328 10.7969 0.863281 7.94531 2.36719 5.85547C3.87109 3.76563 6.44922 1.91992 10.1016 0.318359L12.8555 5.5332C10.6094 6.58789 9.05664 7.64258 8.19727 8.69727C7.33789 9.73242 6.85938 10.9629 6.76172 12.3887H12.8555V24.2246ZM27.709 24.2246H14.9648V14.4102C14.9648 10.7969 15.7168 7.94531 17.2207 5.85547C18.7246 3.76563 21.3027 1.91992 24.9551 0.318359L27.709 5.5332C25.4629 6.58789 23.9102 7.64258 23.0508 8.69727C22.1914 9.73242 21.7129 10.9629 21.6152 12.3887H27.709V24.2246Z" fill="#3636A5"/>
</svg>
