<svg width="35" height="35" viewBox="0 0 35 35" fill="none" xmlns="http://www.w3.org/2000/svg">
<circle r="17.33" transform="matrix(-1 0 0 1 17.3301 17.33)" fill="#FF006D"/>
<path fill-rule="evenodd" clip-rule="evenodd" d="M21.0495 18.632L25.9384 23.4969C26.1103 23.668 26.2067 23.9001 26.2067 24.142C26.2066 24.3839 26.1099 24.6158 25.938 24.7868C25.766 24.9578 25.5328 25.0538 25.2897 25.0538C25.0466 25.0537 24.8135 24.9575 24.6417 24.7864L19.7527 19.9215C18.2912 21.0479 16.4534 21.578 14.613 21.4039C12.7727 21.2298 11.0682 20.3646 9.84619 18.9843C8.62417 17.6041 7.97649 15.8124 8.03488 13.9738C8.09328 12.1352 8.85337 10.3878 10.1605 9.08706C11.4677 7.78633 13.2237 7.02998 15.0714 6.97187C16.9191 6.91376 18.7197 7.55826 20.1068 8.77426C21.4938 9.99026 22.3633 11.6864 22.5383 13.5177C22.7132 15.3489 22.1805 17.1777 21.0485 18.632H21.0495ZM15.3018 19.6276C16.7478 19.6276 18.1346 19.056 19.1572 18.0385C20.1797 17.021 20.7541 15.641 20.7541 14.2021C20.7541 12.7631 20.1797 11.3831 19.1572 10.3656C18.1346 9.34815 16.7478 8.77654 15.3018 8.77654C13.8557 8.77654 12.4689 9.34815 11.4463 10.3656C10.4238 11.3831 9.84938 12.7631 9.84938 14.2021C9.84938 15.641 10.4238 17.021 11.4463 18.0385C12.4689 19.056 13.8557 19.6276 15.3018 19.6276Z" fill="white"/>
</svg>
