<svg width="23" height="23" viewBox="0 0 23 23" fill="none" xmlns="http://www.w3.org/2000/svg">
<path fill-rule="evenodd" clip-rule="evenodd" d="M16.4738 14.8332L22.6606 21.0201C22.878 21.2377 23.0001 21.5328 23 21.8404C22.9999 22.1481 22.8776 22.4431 22.66 22.6605C22.4424 22.878 22.1473 23.0001 21.8397 23C21.532 22.9999 21.237 22.8776 21.0196 22.66L14.8329 16.4731C12.9834 17.9056 10.6577 18.5797 8.32891 18.3583C6.0001 18.1369 3.84309 17.0366 2.2967 15.2813C0.750313 13.5259 -0.0693016 11.2474 0.00459556 8.90919C0.0784927 6.57098 1.04035 4.34875 2.6945 2.69456C4.34864 1.04038 6.57082 0.0784947 8.90897 0.00459568C11.2471 -0.0693033 13.5256 0.750332 15.2809 2.29676C17.0362 3.84319 18.1365 6.00025 18.3579 8.32912C18.5793 10.658 17.9051 12.9837 16.4727 14.8332H16.4738ZM9.20043 16.0994C11.0303 16.0994 12.7853 15.3724 14.0792 14.0784C15.3732 12.7845 16.1001 11.0295 16.1001 9.19951C16.1001 7.36955 15.3732 5.61455 14.0792 4.32058C12.7853 3.0266 11.0303 2.29966 9.20043 2.29966C7.37052 2.29966 5.61556 3.0266 4.32162 4.32058C3.02768 5.61455 2.30075 7.36955 2.30075 9.19951C2.30075 11.0295 3.02768 12.7845 4.32162 14.0784C5.61556 15.3724 7.37052 16.0994 9.20043 16.0994Z" fill="#FF006D"/>
</svg>
