<svg width="183" height="14" viewBox="0 0 183 14" fill="none" xmlns="http://www.w3.org/2000/svg">
<g clip-path="url(#clip0_570_113)">
<path d="M0.993657 13.1505C0.677157 12.8158 0.433151 12.4156 0.277813 11.9762C0.122475 11.5369 0.0593463 11.0685 0.0926096 10.6021V3.39778C0.0583338 2.93127 0.120989 2.46257 0.276383 2.02308C0.431776 1.58359 0.676327 1.18344 0.993657 0.849402C1.72491 0.233607 2.65656 -0.0703023 3.59782 -6.98613e-05H6.34782V1.51606H3.4051C2.97526 1.49946 2.55631 1.65778 2.23844 1.95693C2.09495 2.09346 1.98127 2.25994 1.90494 2.44534C1.82861 2.63074 1.79137 2.8308 1.79573 3.0322V10.9946C1.79036 11.1961 1.82713 11.3965 1.90353 11.582C1.97992 11.7676 2.09415 11.934 2.23844 12.0698C2.39523 12.219 2.579 12.3347 2.77921 12.4103C2.97941 12.486 3.1921 12.5201 3.4051 12.5107H6.34782V14.0322H3.5822C2.64234 14.0871 1.71729 13.772 0.993657 13.1505Z" fill="#0000FF"/>
<path d="M22.0978 13.1507C21.3658 13.765 20.4347 14.0687 19.4937 14.0001H18.7176C17.7765 14.0692 16.8452 13.7655 16.1135 13.1507C15.7959 12.8168 15.5511 12.4167 15.3957 11.9771C15.2403 11.5376 15.1778 11.0688 15.2124 10.6023V3.39797C15.1768 2.93134 15.2388 2.46225 15.3943 2.02254C15.5497 1.58283 15.795 1.18281 16.1135 0.849584C16.8439 0.232317 17.7762 -0.0717825 18.7176 0.000111951H19.4937C20.4351 -0.0712267 21.3671 0.232809 22.0978 0.849584C22.4152 1.18363 22.6597 1.58377 22.8151 2.02326C22.9705 2.46276 23.0331 2.93145 22.9989 3.39797V10.6023C23.0321 11.0687 22.969 11.5371 22.8137 11.9764C22.6583 12.4158 22.4143 12.816 22.0978 13.1507ZM20.8687 1.95711C20.5511 1.65746 20.1319 1.49906 19.702 1.51624H18.5406C18.1121 1.49873 17.6945 1.65727 17.3791 1.95711C17.2349 2.09338 17.1204 2.25969 17.0432 2.44506C16.966 2.63043 16.9278 2.83063 16.9312 3.03238V10.9947C16.9268 11.1966 16.9645 11.3972 17.0418 11.5827C17.1191 11.7682 17.2341 11.9344 17.3791 12.07C17.5346 12.2195 17.7174 12.3354 17.9168 12.4111C18.1162 12.4868 18.3283 12.5207 18.5406 12.5109H19.702C19.9151 12.5209 20.1279 12.487 20.3282 12.4113C20.5285 12.3356 20.7122 12.2196 20.8687 12.07C21.013 11.9341 21.1272 11.7677 21.2036 11.5822C21.28 11.3966 21.3167 11.1963 21.3114 10.9947V3.01623C21.3135 2.81754 21.2752 2.62059 21.199 2.43814C21.1227 2.25569 21.0102 2.09183 20.8687 1.95711Z" fill="#0000FF"/>
<path d="M37.853 13.2796C37.3426 13.7599 36.4989 14 35.3218 14H31.4468V0.0214844H35.0926C36.2384 0.0214844 37.0822 0.258058 37.6186 0.741929C38.1551 1.2258 38.4259 2.02151 38.4259 3.13979V4.26881C38.4501 4.7172 38.365 5.16469 38.1785 5.5704C37.992 5.97611 37.71 6.32713 37.3582 6.59139C37.7736 6.83402 38.113 7.19433 38.3364 7.62971C38.5597 8.0651 38.6577 8.55737 38.6186 9.04839V10.8494C38.6186 11.9928 38.3634 12.8029 37.853 13.2796ZM36.3999 1.83869C36.0961 1.58694 35.71 1.46564 35.3218 1.49998H33.1343V5.91935H35.3218C35.6962 5.92928 36.0593 5.78632 36.3322 5.52151C36.4696 5.38205 36.5769 5.21413 36.6469 5.0288C36.7169 4.84346 36.7481 4.64492 36.7384 4.44624V2.9301C36.7546 2.73412 36.7331 2.53678 36.6749 2.34945C36.6168 2.16213 36.5234 1.98852 36.3999 1.83869ZM36.5457 7.80645C36.4058 7.67356 36.2416 7.57084 36.0628 7.50436C35.8839 7.43789 35.6939 7.40898 35.5041 7.41934H33.1238V12.5H35.4884C35.8798 12.5333 36.2684 12.408 36.5718 12.1505C36.6999 11.9991 36.797 11.8224 36.857 11.6311C36.917 11.4397 36.9387 11.2379 36.9207 11.0376V8.8602C36.9306 8.66749 36.9025 8.47472 36.838 8.29358C36.7736 8.11244 36.6741 7.94673 36.5457 7.80645Z" fill="#0000FF"/>
<path d="M54.1763 0V1.457H49.3898V6.03762H53.6919V7.49462H49.3898V12.5323H54.1763V13.9946H47.7075V0.0161448L54.1763 0Z" fill="#0000FF"/>
<path d="M64.6603 8.19891V14H62.978V0.0214832H66.6239C67.5137 -0.0457691 68.3973 0.219475 69.1135 0.768803C69.4144 1.0756 69.646 1.44717 69.7919 1.857C69.9377 2.26683 69.9942 2.70485 69.9572 3.13979V5.05911C69.9572 6.56987 69.3739 7.50535 68.2124 7.88169L70.9051 14.0215H69.0666L66.5666 8.22041L64.6603 8.19891ZM67.9259 1.83869C67.6245 1.58626 67.2397 1.46479 66.853 1.49998H64.6603V6.69893H66.853C67.0464 6.7342 67.2452 6.72071 67.4324 6.65961C67.6197 6.59851 67.7899 6.49162 67.9285 6.34801C68.0671 6.2044 68.17 6.02834 68.2285 5.83482C68.287 5.6413 68.2994 5.43604 68.2645 5.23654V2.94087C68.2821 2.74314 68.2612 2.54375 68.2031 2.35447C68.1449 2.16519 68.0507 1.98983 67.9259 1.83869Z" fill="#0000FF"/>
<path d="M81.9053 14V1.51613H78.8271V0H86.6761V1.51613H83.5928V14H81.9053Z" fill="#0000FF"/>
<path d="M101.489 13.1505C100.757 13.7654 99.8256 14.0691 98.8844 14H98.4001C97.459 14.0686 96.5279 13.7649 95.7959 13.1505C95.4794 12.8159 95.2354 12.4156 95.0801 11.9763C94.9247 11.537 94.8616 11.0686 94.8949 10.6022V0H96.5824V10.9785C96.577 11.18 96.6137 11.3804 96.6901 11.566C96.7665 11.7515 96.8808 11.9179 97.0251 12.0538C97.1807 12.203 97.3636 12.3188 97.563 12.3945C97.7623 12.4701 97.9743 12.5042 98.1865 12.4946H99.0615C99.2738 12.5042 99.4857 12.4701 99.6851 12.3945C99.8845 12.3188 100.067 12.203 100.223 12.0538C100.368 11.9181 100.483 11.7519 100.56 11.5664C100.638 11.3809 100.675 11.1804 100.671 10.9785V0H102.353V10.6022C102.393 11.066 102.336 11.533 102.187 11.9724C102.038 12.4118 101.8 12.8135 101.489 13.1505Z" fill="#0000FF"/>
<path d="M112.39 8.19891V14H110.702V0.0214832H114.348C115.238 -0.0457691 116.121 0.219475 116.838 0.768803C117.139 1.0756 117.37 1.44717 117.516 1.857C117.662 2.26683 117.718 2.70485 117.681 3.13979V5.05911C117.681 6.56987 117.098 7.50535 115.937 7.88169L118.629 14.0215H116.791L114.291 8.22041L112.39 8.19891ZM115.655 1.83869C115.354 1.58626 114.969 1.46479 114.582 1.49998H112.39V6.69893H114.582C114.775 6.73126 114.972 6.71553 115.157 6.65312C115.342 6.5907 115.51 6.48341 115.646 6.3402C115.783 6.19698 115.885 6.02202 115.942 5.83C116 5.63797 116.012 5.43448 115.978 5.23654V2.94087C115.998 2.74423 115.98 2.54547 115.924 2.35624C115.869 2.16701 115.777 1.99108 115.655 1.83869Z" fill="#0000FF"/>
<path d="M128.609 10.457L127.853 14H126.129L129.405 0.0214844H131.635L134.848 14H133.124L132.39 10.457H128.609ZM132.077 8.95697L130.515 1.3172L128.952 8.95697H132.077Z" fill="#0000FF"/>
<path d="M148.51 13.2527C147.992 13.7509 147.154 14 145.994 14H143.51V12.5H146.187C146.578 12.5333 146.967 12.408 147.27 12.1505C147.398 11.9991 147.495 11.8224 147.555 11.6311C147.615 11.4398 147.637 11.2379 147.619 11.0376V8.9785C147.633 8.78124 147.606 8.58315 147.539 8.39765C147.473 8.21214 147.369 8.04354 147.234 7.90323C147.094 7.76886 146.93 7.66483 146.751 7.5974C146.573 7.52996 146.382 7.50052 146.192 7.51077H144.109V6.01075H145.989C146.173 6.01583 146.357 5.98332 146.53 5.91506C146.702 5.8468 146.86 5.74412 146.994 5.6129C147.132 5.47365 147.239 5.30577 147.309 5.12039C147.379 4.935 147.41 4.73635 147.4 4.53763V2.89786C147.429 2.50743 147.307 2.12114 147.062 1.82259C146.76 1.57016 146.375 1.44869 145.989 1.48387H143.504V-0.0161135H145.754C146.644 -0.0833658 147.528 0.181845 148.244 0.731173C148.545 1.03798 148.777 1.40954 148.922 1.81937C149.068 2.2292 149.125 2.66722 149.088 3.10216V4.36021C149.112 4.80859 149.027 5.25608 148.84 5.6618C148.654 6.06751 148.372 6.41853 148.02 6.68279C148.446 6.92147 148.794 7.28309 149.024 7.72331C149.253 8.16353 149.353 8.66324 149.312 9.16128V10.8387C149.312 11.9462 149.03 12.7527 148.51 13.2527Z" fill="#FF006E"/>
<path d="M164.885 13.1182C164.597 13.4103 164.254 13.6389 163.878 13.7905C163.502 13.942 163.101 14.0133 162.697 13.9999H162.02C161.616 14.0134 161.213 13.9422 160.836 13.7907C160.459 13.6392 160.116 13.4104 159.827 13.1182C159.524 12.7821 159.29 12.3856 159.141 11.9529C158.991 11.5202 158.929 11.0605 158.958 10.6021V3.39778C158.922 2.93298 158.982 2.46571 159.134 2.02656C159.286 1.58741 159.526 1.18629 159.838 0.8494C160.556 0.234975 161.475 -0.0693856 162.405 -7.12359e-05H164.827V1.51606H162.223C161.795 1.49855 161.377 1.65709 161.062 1.95693C160.917 2.09254 160.802 2.25873 160.724 2.44426C160.647 2.62978 160.609 2.8303 160.614 3.03219V5.21499H162.515C163.397 5.14058 164.275 5.41113 164.973 5.97304C165.263 6.30048 165.483 6.68664 165.621 7.10688C165.758 7.52712 165.809 7.97225 165.77 8.41392V10.6182C165.796 11.0753 165.731 11.5329 165.578 11.9629C165.426 12.3929 165.19 12.7861 164.885 13.1182ZM161.01 12.043C161.153 12.1926 161.326 12.3092 161.516 12.3852C161.706 12.4612 161.91 12.4948 162.114 12.4838H162.598C162.797 12.4959 162.995 12.4651 163.181 12.3934C163.367 12.3218 163.537 12.2108 163.679 12.0675C163.821 11.9243 163.933 11.752 164.007 11.5617C164.081 11.3714 164.115 11.1672 164.109 10.9623V8.03219C164.118 7.85353 164.091 7.67483 164.03 7.50735C163.969 7.33987 163.875 7.18724 163.754 7.05907C163.462 6.81121 163.09 6.68638 162.713 6.7096H160.629V11.0107C160.62 11.3978 160.756 11.7736 161.01 12.0591V12.043Z" fill="#FF006E"/>
<path d="M181.192 13.1505C180.46 13.7649 179.529 14.0685 178.588 14H177.817C176.876 14.0685 175.945 13.7649 175.213 13.1505C174.895 12.8167 174.65 12.4165 174.495 11.977C174.339 11.5375 174.277 11.0687 174.312 10.6021V3.39782C174.276 2.93119 174.338 2.4621 174.493 2.0224C174.649 1.58269 174.894 1.18266 175.213 0.84944C175.943 0.232666 176.875 -0.0713699 177.817 -3.1271e-05H178.588C179.529 -0.0713699 180.461 0.232666 181.192 0.84944C181.509 1.18348 181.754 1.58363 181.909 2.02312C182.064 2.46261 182.127 2.93131 182.093 3.39782V10.6021C182.126 11.0686 182.063 11.5369 181.908 11.9763C181.752 12.4156 181.508 12.8159 181.192 13.1505ZM179.963 1.95697C179.647 1.65814 179.229 1.49976 178.801 1.5161H177.634C177.206 1.49976 176.789 1.65814 176.473 1.95697C176.33 2.0935 176.216 2.25998 176.139 2.44538C176.063 2.63077 176.026 2.83084 176.03 3.03223V10.9946C176.025 11.1961 176.062 11.3965 176.138 11.582C176.214 11.7676 176.329 11.934 176.473 12.0699C176.629 12.2191 176.812 12.3349 177.011 12.4105C177.21 12.4862 177.422 12.5203 177.634 12.5107H178.801C179.013 12.5203 179.225 12.4862 179.425 12.4105C179.624 12.3349 179.807 12.2191 179.963 12.0699C180.107 11.934 180.221 11.7676 180.298 11.582C180.374 11.3965 180.411 11.1961 180.405 10.9946V3.01609C180.407 2.8174 180.369 2.62044 180.293 2.43799C180.217 2.25555 180.104 2.09168 179.963 1.95697Z" fill="#FF006E"/>
</g>
<defs>
<clipPath id="clip0_570_113">
<rect width="182" height="14" fill="white" transform="translate(0.0927734)"/>
</clipPath>
</defs>
</svg>
