<svg
                    width="107"
                    height="225"
                    viewBox="0 0 107 225"
                    fill="none"
                    xmlns="http://www.w3.org/2000/svg"
                  >
                    <g clip-path="url(#clip0_570_127)">
                      <path
                        d="M72.0329 137.819H55.4545C55.7999 129.709 55.9795 121.323 55.9795 112.786C55.9795 104.248 55.8137 96.2072 55.4821 88.3049L71.8395 88.222L80.1287 85.4589L93.0322 75.3322L68.1646 69.8061L53.9901 65.0536C53.0921 54.9546 51.9178 45.6016 50.4671 37.423C49.2041 29.2258 47.0881 21.1831 44.1536 13.4257C42.7721 10.3035 38.89 0.784668 30.3383 0.784668C22.0491 0.784668 17.5591 9.99956 16.0808 13.0251C12.5851 20.72 9.94887 28.777 8.2199 37.0499C3.27401 58.4913 0.538574 85.4037 0.538574 112.841C0.538574 140.278 3.30164 167.19 8.2199 188.632C11.8119 204.202 18.0288 224.897 30.3244 224.897C38.8623 224.897 42.7582 215.378 44.1398 212.242C47.0764 204.49 49.1925 196.452 50.4534 188.259C52.0836 178.947 53.3822 168.24 54.3078 156.635L80.405 140.25L72.0329 137.819Z"
                        fill="url(#paint0_linear_570_127)"
                      />
                      <path
                        d="M30.9043 0.729492H89.7576C97.4389 0.729492 104.001 34.287 106.599 73.7988L80.3494 85.3208L54.4456 73.7988C49.9832 9.66804 38.5856 0.729492 30.9043 0.729492Z"
                        fill="url(#paint1_linear_570_127)"
                      />
                      <path
                        d="M80.2941 140.25L54.3904 151.773C49.9833 215.903 38.5856 224.842 30.9043 224.842H89.7576C97.4389 224.842 104.001 191.284 106.599 151.773L80.2941 140.25Z"
                        fill="url(#paint2_linear_570_127)"
                      />
                      <path
                        d="M72.2398 88.512L47.8281 77.3355C45.3413 37.0223 38.7376 8.25879 30.9734 8.25879C21.0816 8.25879 7.4873 55.1066 7.4873 112.896C7.4873 170.686 21.0263 217.547 30.9734 217.547C38.6823 217.547 45.2584 189.088 47.7866 149.161L72.2398 137.957V88.512Z"
                        fill="url(#paint3_linear_570_127)"
                      />
                    </g>
                    <defs>
                      <linearGradient
                        id="paint0_linear_570_127"
                        x1="46.7508"
                        y1="12.5553"
                        x2="46.7508"
                        y2="215.213"
                        gradientUnits="userSpaceOnUse"
                      >
                        <stop stop-color="#0000FF" />
                        <stop offset="1" stop-color="#000073" />
                      </linearGradient>
                      <linearGradient
                        id="paint1_linear_570_127"
                        x1="68.7583"
                        y1="85.1826"
                        x2="68.7583"
                        y2="8.5766"
                        gradientUnits="userSpaceOnUse"
                      >
                        <stop stop-color="#FF006E" />
                        <stop offset="1" stop-color="#0000FF" />
                      </linearGradient>
                      <linearGradient
                        id="paint2_linear_570_127"
                        x1="68.7583"
                        y1="148.94"
                        x2="68.7583"
                        y2="216.746"
                        gradientUnits="userSpaceOnUse"
                      >
                        <stop stop-color="#0000FF" />
                        <stop offset="1" stop-color="#000073" />
                      </linearGradient>
                      <linearGradient
                        id="paint3_linear_570_127"
                        x1="39.8843"
                        y1="173.38"
                        x2="39.8843"
                        y2="73.9369"
                        gradientUnits="userSpaceOnUse"
                      >
                        <stop stop-color="#0000FF" />
                        <stop offset="1" stop-color="#000073" />
                      </linearGradient>
                      <clipPath id="clip0_570_127">
                        <rect
                          width="106.088"
                          height="224.112"
                          fill="white"
                          transform="translate(0.510742 0.729492)"
                        />
                      </clipPath>
                    </defs>
                  </svg>